# xmcd
#
# Track frame offsets:
#	150
#	17945
#	35727
#
# Disc length: 766 seconds
# Revision: 0
# Processed by: cddbd v1.5.2PL0 Copyright (c) Steve Scherf et al.
# Submitted via: dBpowerAMP V12.0
#
DISCID=2102fc03
DTITLE=Regina Belle - I’ve Had Enough
DYEAR=1998
DGENRE=R&B
TTITLE0=I’ve Had Enough [Radio Edit]
TTITLE1=I’ve Had Enough [Instrumental]
TTITLE2=I’ve Had Enough [Acappella]
EXTD=
EXTT0=
EXTT1=
EXTT2=
PLAYORDER=
